HIERARCHY
ROOT root
{
	OFFSET 0.000000 0.000000 0.000000
	CHANNELS 6 Xposition Yposition Zposition Zrotation Yrotation Xrotation
	JOINT lhip
	{
		OFFSET 0.058581 -0.082280 -0.017664
		CHANNELS 3 Zrotation Yrotation Xrotation
		JOINT lknee
		{
			OFFSET 0.043451 -0.386469 0.008037
			CHANNELS 3 Zrotation Yrotation Xrotation
			JOINT lankle
			{
				OFFSET -0.014790 -0.426874 -0.037428
				CHANNELS 3 Zrotation Yrotation Xrotation
				JOINT ltoe
				{
					OFFSET 0.041054 -0.060286 0.122042
					CHANNELS 3 Zrotation Yrotation Xrotation
					End Site
					{
						OFFSET 0.000000 0.000000 0.000000
					}
				}
			}
		}
	}
	JOINT rhip
	{
		OFFSET -0.060310 -0.090513 -0.013543
		CHANNELS 3 Zrotation Yrotation Xrotation
		JOINT rknee
		{
			OFFSET -0.043257 -0.383688 -0.004843
			CHANNELS 3 Zrotation Yrotation Xrotation
			JOINT rankle
			{
				OFFSET 0.019056 -0.420046 -0.034562
				CHANNELS 3 Zrotation Yrotation Xrotation
				JOINT rtoe
				{
					OFFSET -0.034840 -0.062106 0.130323
					CHANNELS 3 Zrotation Yrotation Xrotation
					End Site
					{
						OFFSET 0.000000 0.000000 0.000000
					}
				}
			}
		}
	}
	JOINT lowerback
	{
		OFFSET 0.004439 0.124404 -0.038385
		CHANNELS 3 Zrotation Yrotation Xrotation
		JOINT upperback
		{
			OFFSET 0.004488 0.137956 0.026820
			CHANNELS 3 Zrotation Yrotation Xrotation
			JOINT chest
			{
				OFFSET -0.002265 0.056032 0.002855
				CHANNELS 3 Zrotation Yrotation Xrotation
				JOINT lowerneck
				{
					OFFSET -0.013390 0.211636 -0.033468
					CHANNELS 3 Zrotation Yrotation Xrotation
					JOINT upperneck
					{
						OFFSET 0.010113 0.088937 0.050410
						CHANNELS 3 Zrotation Yrotation Xrotation
						End Site
						{
							OFFSET 0.000000 0.000000 0.000000
						}
					}
				}
				JOINT lclavicle
				{
					OFFSET 0.071702 0.114000 -0.018898
					CHANNELS 3 Zrotation Yrotation Xrotation
					JOINT lshoulder
					{
						OFFSET 0.122921 0.045205 -0.019046
						CHANNELS 3 Zrotation Yrotation Xrotation
						JOINT lelbow
						{
							OFFSET 0.255332 -0.015649 -0.022946
							CHANNELS 3 Zrotation Yrotation Xrotation
							JOINT lwrist
							{
								OFFSET 0.265709 0.012698 -0.007375
								CHANNELS 3 Zrotation Yrotation Xrotation
								End Site
								{
									OFFSET 0.000000 0.000000 0.000000
								}
							}
						}
					}
				}
				JOINT rclavicle
				{
					OFFSET -0.082954 0.112472 -0.023707
					CHANNELS 3 Zrotation Yrotation Xrotation
					JOINT rshoulder
					{
						OFFSET -0.113228 0.046853 -0.008472
						CHANNELS 3 Zrotation Yrotation Xrotation
						JOINT relbow
						{
							OFFSET -0.260127 -0.014369 -0.031269
							CHANNELS 3 Zrotation Yrotation Xrotation
							JOINT rwrist
							{
								OFFSET -0.269108 0.006794 -0.006027
								CHANNELS 3 Zrotation Yrotation Xrotation
								End Site
								{
									OFFSET 0.000000 0.000000 0.000000
								}
							}
						}
					}
				}
			}
		}
	}
}
MOTION
Frames: 7
Frame Time: 0.033333
0.960008 0.540259 0.858829 89.117140 1.490815 80.950207 9.090135 1.002297 -18.220264 -12.115763 1.521495 58.958712 6.389404 3.740099 -34.918092 0.000000 -0.000000 0.000000 -7.385045 -4.622042 -18.765637 2.941973 -5.381873 60.928124 -4.267107 -4.095732 -34.298910 0.000000 -0.000000 0.000000 0.621312 1.010231 13.109952 3.082174 -3.420521 3.841030 0.463357 -0.635336 -4.986087 1.783066 8.200914 -15.003203 -2.844534 1.619440 12.580396 -13.404286 -22.701943 -6.818206 -32.518321 -26.659634 -4.693810 86.530746 -55.580169 -55.921500 -23.545610 -10.746340 1.877457 11.708373 25.296957 -5.281018 20.077048 34.296940 -10.941018 -64.401260 55.180124 -38.907652 39.367193 9.884748 -4.579226 
0.960274 0.540439 0.858825 89.124361 1.523943 80.941593 9.102343 1.028065 -18.192926 -12.113772 1.492236 58.968276 6.400296 3.744764 -34.950166 0.000000 -0.000000 0.000000 -7.388841 -4.660508 -18.715770 2.943326 -5.408676 60.903930 -4.272119 -4.044688 -34.310828 0.000000 -0.000000 0.000000 0.629169 1.027291 13.108530 3.088894 -3.426065 3.865571 0.471814 -0.625632 -5.012094 1.822664 8.169074 -14.898225 -2.814616 1.599824 12.540605 -13.399879 -22.735686 -6.816159 -32.535931 -26.651434 -4.676076 86.526509 -55.625371 -55.930833 -23.584777 -10.723169 1.841033 11.693620 25.302054 -5.283090 20.128627 34.240168 -10.939345 -64.453458 55.202420 -38.953741 39.380150 9.870335 -4.603439 
0.960471 0.540672 0.858914 89.110663 1.549370 80.939732 9.097497 1.010651 -18.164601 -12.092755 1.486101 58.950513 6.399049 3.771527 -34.964663 0.000000 -0.000000 0.000000 -7.391512 -4.662591 -18.681075 2.947241 -5.425195 60.863379 -4.263966 -4.009534 -34.300795 0.000000 -0.000000 0.000000 0.642068 1.038516 13.107718 3.090832 -3.418373 3.886373 0.480898 -0.605258 -5.037107 1.838539 8.140055 -14.818332 -2.802416 1.588829 12.516773 -13.411796 -22.757435 -6.797805 -32.583695 -26.629886 -4.646333 86.522034 -55.649711 -55.934466 -23.563999 -10.735270 1.849932 11.691249 25.316833 -5.271162 20.158818 34.188833 -10.940780 -64.453436 55.232963 -38.975043 39.329462 9.896554 -4.634655 
0.960541 0.540935 0.859016 89.076665 1.575187 80.958944 9.090800 0.943529 -18.163271 -12.062723 1.513752 58.927997 6.397094 3.834611 -34.969547 0.000000 -0.000000 0.000000 -7.380477 -4.620459 -18.678504 2.954912 -5.437727 60.814227 -4.260062 -4.007767 -34.286298 0.000000 -0.000000 0.000000 0.667166 1.046484 13.091855 3.093945 -3.402406 3.916147 0.487195 -0.585835 -5.049399 1.830603 8.110238 -14.780666 -2.792509 1.592810 12.479090 -13.429875 -22.763658 -6.785721 -32.624808 -26.605542 -4.615497 86.519201 -55.653411 -55.937548 -23.565960 -10.734039 1.866949 11.695048 25.336274 -5.243119 20.155299 34.176669 -10.952070 -64.480892 55.248922 -38.982030 39.333497 9.873628 -4.607170 
0.960561 0.541202 0.859109 89.056439 1.590275 80.977792 9.059433 0.889975 -18.167324 -12.024121 1.516866 58.910969 6.397180 3.889340 -34.977847 0.000000 -0.000000 0.000000 -7.366229 -4.605597 -18.684483 2.943157 -5.422818 60.778650 -4.246875 -4.007897 -34.274047 0.000000 -0.000000 0.000000 0.686212 1.054822 13.099116 3.092366 -3.392350 3.908950 0.490203 -0.580143 -5.026337 1.848039 8.117159 -14.769290 -2.773150 1.619214 12.414516 -13.432027 -22.761928 -6.789630 -32.645125 -26.592992 -4.593111 86.475955 -55.655274 -55.883758 -23.542217 -10.724183 1.892067 11.678266 25.340417 -5.258456 20.177014 34.182162 -10.926050 -64.467675 55.240376 -38.964972 39.325877 9.882813 -4.621622 
0.960558 0.541477 0.859184 89.049972 1.594166 81.000210 9.030396 0.846897 -18.184316 -11.997955 1.532793 58.898834 6.402847 3.927507 -34.978012 0.000000 -0.000000 0.000000 -7.365542 -4.600133 -18.700021 2.956796 -5.395761 60.751656 -4.232775 -4.030028 -34.251229 0.000000 -0.000000 0.000000 0.690200 1.058751 13.110728 3.093127 -3.390160 3.896319 0.495851 -0.588438 -5.010777 1.871297 8.109467 -14.787182 -2.738318 1.653747 12.411239 -13.447782 -22.781270 -6.770122 -32.617396 -26.579954 -4.604096 86.427320 -55.610415 -55.863456 -23.522053 -10.737943 1.938914 11.699305 25.372098 -5.206141 20.109733 34.209160 -10.957236 -64.454072 55.216314 -38.968429 39.348925 9.851281 -4.565259 
0.960576 0.541733 0.859223 89.052338 1.604601 81.015646 9.022816 0.834115 -18.199303 -11.997982 1.541474 58.894438 6.410408 3.937855 -34.976258 0.000000 -0.000000 0.000000 -7.367368 -4.595640 -18.707384 2.966216 -5.385972 60.731202 -4.219837 -4.038552 -34.238514 0.000000 -0.000000 0.000000 0.697934 1.057816 13.136042 3.099321 -3.384287 3.868171 0.503283 -0.598698 -4.985367 1.903952 8.104301 -14.786710 -2.716817 1.672626 12.380269 -13.451742 -22.769499 -6.775553 -32.611467 -26.604693 -4.620704 86.379023 -55.591269 -55.820906 -23.553835 -10.731123 1.969426 11.700089 25.381553 -5.162053 20.055360 34.253054 -10.993082 -64.470344 55.172986 -38.977460 39.372242 9.835014 -4.535684 
